<svg id="visual" viewBox="0 0 900 600" width="900" height="600" xmlns="http://www.w3.org/2000/svg" xmlns:xlink="http://www.w3.org/1999/xlink" version="1.1"><path d="M0 13L69 13L69 13L138 13L138 49L208 49L208 7L277 7L277 13L346 13L346 19L415 19L415 13L485 13L485 25L554 25L554 43L623 43L623 13L692 13L692 7L762 7L762 37L831 37L831 7L900 7L900 43L900 0L900 0L831 0L831 0L762 0L762 0L692 0L692 0L623 0L623 0L554 0L554 0L485 0L485 0L415 0L415 0L346 0L346 0L277 0L277 0L208 0L208 0L138 0L138 0L69 0L69 0L0 0Z" fill="#6366f1"></path><path d="M0 55L69 55L69 91L138 91L138 151L208 151L208 73L277 73L277 97L346 97L346 79L415 79L415 31L485 31L485 49L554 49L554 97L623 97L623 61L692 61L692 67L762 67L762 97L831 97L831 103L900 103L900 67L900 41L900 5L831 5L831 35L762 35L762 5L692 5L692 11L623 11L623 41L554 41L554 23L485 23L485 11L415 11L415 17L346 17L346 11L277 11L277 5L208 5L208 47L138 47L138 11L69 11L69 11L0 11Z" fill="#5e60e8"></path><path d="M0 115L69 115L69 145L138 145L138 211L208 211L208 139L277 139L277 169L346 169L346 151L415 151L415 79L485 79L485 121L554 121L554 163L623 163L623 85L692 85L692 139L762 139L762 169L831 169L831 127L900 127L900 91L900 65L900 101L831 101L831 95L762 95L762 65L692 65L692 59L623 59L623 95L554 95L554 47L485 47L485 29L415 29L415 77L346 77L346 95L277 95L277 71L208 71L208 149L138 149L138 89L69 89L69 53L0 53Z" fill="#5959df"></path><path d="M0 259L69 259L69 307L138 307L138 427L208 427L208 289L277 289L277 283L346 283L346 199L415 199L415 235L485 235L485 277L554 277L554 217L623 217L623 163L692 163L692 295L762 295L762 259L831 259L831 211L900 211L900 247L900 89L900 125L831 125L831 167L762 167L762 137L692 137L692 83L623 83L623 161L554 161L554 119L485 119L485 77L415 77L415 149L346 149L346 167L277 167L277 137L208 137L208 209L138 209L138 143L69 143L69 113L0 113Z" fill="#5453d6"></path><path d="M0 271L69 271L69 355L138 355L138 439L208 439L208 301L277 301L277 325L346 325L346 247L415 247L415 259L485 259L485 325L554 325L554 223L623 223L623 199L692 199L692 343L762 343L762 295L831 295L831 241L900 241L900 253L900 245L900 209L831 209L831 257L762 257L762 293L692 293L692 161L623 161L623 215L554 215L554 275L485 275L485 233L415 233L415 197L346 197L346 281L277 281L277 287L208 287L208 425L138 425L138 305L69 305L69 257L0 257Z" fill="#4f4dcd"></path><path d="M0 295L69 295L69 421L138 421L138 475L208 475L208 337L277 337L277 361L346 361L346 271L415 271L415 277L485 277L485 337L554 337L554 283L623 283L623 259L692 259L692 355L762 355L762 319L831 319L831 295L900 295L900 289L900 251L900 239L831 239L831 293L762 293L762 341L692 341L692 197L623 197L623 221L554 221L554 323L485 323L485 257L415 257L415 245L346 245L346 323L277 323L277 299L208 299L208 437L138 437L138 353L69 353L69 269L0 269Z" fill="#4b47c5"></path><path d="M0 403L69 403L69 493L138 493L138 517L208 517L208 451L277 451L277 427L346 427L346 373L415 373L415 331L485 331L485 403L554 403L554 307L623 307L623 331L692 331L692 463L762 463L762 445L831 445L831 349L900 349L900 313L900 287L900 293L831 293L831 317L762 317L762 353L692 353L692 257L623 257L623 281L554 281L554 335L485 335L485 275L415 275L415 269L346 269L346 359L277 359L277 335L208 335L208 473L138 473L138 419L69 419L69 293L0 293Z" fill="#4641bc"></path><path d="M0 421L69 421L69 565L138 565L138 529L208 529L208 517L277 517L277 493L346 493L346 403L415 403L415 343L485 343L485 463L554 463L554 355L623 355L623 379L692 379L692 523L762 523L762 475L831 475L831 385L900 385L900 379L900 311L900 347L831 347L831 443L762 443L762 461L692 461L692 329L623 329L623 305L554 305L554 401L485 401L485 329L415 329L415 371L346 371L346 425L277 425L277 449L208 449L208 515L138 515L138 491L69 491L69 401L0 401Z" fill="#413bb4"></path><path d="M0 433L69 433L69 571L138 571L138 535L208 535L208 559L277 559L277 505L346 505L346 421L415 421L415 391L485 391L485 487L554 487L554 409L623 409L623 421L692 421L692 571L762 571L762 493L831 493L831 415L900 415L900 427L900 377L900 383L831 383L831 473L762 473L762 521L692 521L692 377L623 377L623 353L554 353L554 461L485 461L485 341L415 341L415 401L346 401L346 491L277 491L277 515L208 515L208 527L138 527L138 563L69 563L69 419L0 419Z" fill="#3c36ab"></path><path d="M0 601L69 601L69 601L138 601L138 601L208 601L208 601L277 601L277 601L346 601L346 601L415 601L415 601L485 601L485 601L554 601L554 601L623 601L623 601L692 601L692 601L762 601L762 601L831 601L831 601L900 601L900 601L900 425L900 413L831 413L831 491L762 491L762 569L692 569L692 419L623 419L623 407L554 407L554 485L485 485L485 389L415 389L415 419L346 419L346 503L277 503L277 557L208 557L208 533L138 533L138 569L69 569L69 431L0 431Z" fill="#3730a3"></path></svg>